<?xml version="1.0" encoding="iso-8859-1"?>
<!-- Generator: Adobe Illustrator 19.0.0, SVG Export Plug-In . SVG Version: 6.00 Build 0)  -->
<svg version="1.1" xmlns="http://www.w3.org/2000/svg" xmlns:xlink="http://www.w3.org/1999/xlink" x="0px" y="0px"
	 viewBox="0 0 192 192" style="enable-background:new 0 0 192 192;" xml:space="preserve">
<g id="GRID" style="display:none;">
	
		<circle style="display:inline;fill-rule:evenodd;clip-rule:evenodd;fill:none;stroke:#575858;stroke-width:0.5;stroke-miterlimit:100;" cx="96" cy="95.989" r="88"/>
	
		<path style="display:inline;fill-rule:evenodd;clip-rule:evenodd;fill:none;stroke:#575858;stroke-width:0.5;stroke-miterlimit:100;" d="
		M160,171.99H32c-6.6,0-12-5.4-12-12v-128c0-6.6,5.4-12,12-12h128c6.6,0,12,5.4,12,12v128C172,166.589,166.6,171.99,160,171.99z"/>
	
		<path style="display:inline;fill-rule:evenodd;clip-rule:evenodd;fill:none;stroke:#575858;stroke-width:0.5;stroke-miterlimit:100;" d="
		M148,183.989H44c-6.6,0-12-5.4-12-12v-152c0-6.6,5.4-12,12-12h104c6.6,0,12,5.4,12,12v152C160,178.589,154.6,183.989,148,183.989z"
		/>
	
		<path style="display:inline;fill-rule:evenodd;clip-rule:evenodd;fill:none;stroke:#575858;stroke-width:0.5;stroke-miterlimit:100;" d="
		M8,147.99v-104c0-6.6,5.4-12,12-12h152c6.6,0,12,5.4,12,12v104c0,6.6-5.4,12-12,12H20C13.4,159.99,8,154.59,8,147.99z"/>
	
		<line style="display:inline;fill-rule:evenodd;clip-rule:evenodd;fill:none;stroke:#575858;stroke-width:0.5;stroke-miterlimit:100;" x1="0" y1="95.99" x2="192" y2="95.99"/>
	
		<line style="display:inline;fill-rule:evenodd;clip-rule:evenodd;fill:none;stroke:#575858;stroke-width:0.5;stroke-miterlimit:100;" x1="96" y1="192" x2="96" y2="-0.022"/>
	
		<line style="display:inline;fill-rule:evenodd;clip-rule:evenodd;fill:none;stroke:#575858;stroke-width:0.5;stroke-miterlimit:100;" x1="0" y1="67.984" x2="192" y2="67.984"/>
	
		<line style="display:inline;fill-rule:evenodd;clip-rule:evenodd;fill:none;stroke:#575858;stroke-width:0.5;stroke-miterlimit:100;" x1="0" y1="123.984" x2="192" y2="123.984"/>
	
		<line style="display:inline;fill-rule:evenodd;clip-rule:evenodd;fill:none;stroke:#575858;stroke-width:0.5;stroke-miterlimit:100;" x1="68" y1="192" x2="68" y2="0"/>
	
		<line style="display:inline;fill-rule:evenodd;clip-rule:evenodd;fill:none;stroke:#575858;stroke-width:0.5;stroke-miterlimit:100;" x1="124" y1="192" x2="124" y2="0"/>
	
		<line style="display:inline;fill-rule:evenodd;clip-rule:evenodd;fill:none;stroke:#575858;stroke-width:0.5;stroke-miterlimit:100;" x1="191.99" y1="191.98" x2="0.01" y2="0"/>
	
		<line style="display:inline;fill-rule:evenodd;clip-rule:evenodd;fill:none;stroke:#575858;stroke-width:0.5;stroke-miterlimit:100;" x1="0.02" y1="191.969" x2="191.98" y2="0.009"/>
	
		<circle style="display:inline;fill-rule:evenodd;clip-rule:evenodd;fill:none;stroke:#575858;stroke-width:0.5;stroke-miterlimit:100;" cx="96" cy="95.99" r="39.537"/>
</g>
<g id="BG">
	<path style="fill:#488FCC;" d="M160,171.99H32c-6.6,0-12-5.4-12-12v-128c0-6.6,5.4-12,12-12h128c6.6,0,12,5.4,12,12v128
		C172,166.59,166.6,171.99,160,171.99z"/>
	<path style="opacity:0.2;fill:#263238;" d="M160,170.99H32c-6.6,0-12-5.4-12-12v1c0,6.6,5.4,12,12,12h128c6.6,0,12-5.4,12-12v-1
		C172,165.59,166.6,170.99,160,170.99z"/>
	<path style="opacity:0.2;fill:#FFFFFF;" d="M160,19.99H32c-6.6,0-12,5.4-12,12v1c0-6.6,5.4-12,12-12h128c6.6,0,12,5.4,12,12v-1
		C172,25.389,166.6,19.99,160,19.99z"/>
</g>
<g id="Shapes">
	<g>
		<linearGradient id="SVGID_1_" gradientUnits="userSpaceOnUse" x1="60.0565" y1="60.0363" x2="227.959" y2="227.9388">
			<stop  offset="0" style="stop-color:#263238;stop-opacity:0.2"/>
			<stop  offset="1" style="stop-color:#263238;stop-opacity:0"/>
		</linearGradient>
		<path style="fill:url(#SVGID_1_);" d="M124.732,52.856c-2.037-2.277-5.178-3.462-9.365-3.468
			c-12.778-0.019-25.556-0.012-38.334-0.003c-8.392,0.006-12.49,4.047-12.512,12.401c-0.03,11.4-0.007,22.8-0.007,34.2
			c0,11.525-0.038,23.051,0.013,34.576c0.018,4.145,1.209,7.25,3.473,9.274c0.222,0.248,32.024,32.025,32.154,32.154H160
			c6.6,0,12-5.4,12-12v-59.867C171.785,99.885,124.981,53.078,124.732,52.856z"/>
	</g>
	<g>
		
			<image style="overflow:visible;opacity:0.2;" width="363" height="489" xlink:href="BE8B8645.png"  transform="matrix(0.24 0 0 0.24 52.5002 41.3754)">
		</image>
		<g>
			<g>
				<path style="fill:#FEC111;" d="M64.514,95.986c0-11.4-0.022-22.8,0.007-34.2c0.022-8.355,4.12-12.395,12.512-12.401
					c12.778-0.01,25.556-0.016,38.334,0.003c7.885,0.012,12.099,4.16,12.11,12.029c0.031,23.051,0.031,46.101,0,69.152
					c-0.01,7.855-4.235,12.022-12.116,12.037c-12.903,0.024-25.807,0.025-38.71,0c-7.871-0.015-12.089-4.177-12.124-12.044
					C64.476,119.037,64.514,107.512,64.514,95.986z M96.175,59.844c-4.001,0-8.002-0.06-12.002,0.011
					c-12.777,0.227-10.827-2.378-10.994,11.95c-0.029,2.468,1.137,3.709,3.627,3.708c12.752-0.006,25.504-0.006,38.256,0.001
					c2.462,0.001,3.691-1.118,3.632-3.657c-0.064-2.749-0.093-5.504,0.01-8.25c0.101-2.71-1.034-3.838-3.776-3.794
					C108.678,59.913,102.426,59.845,96.175,59.844z M84.055,93.584c-0.014-2.995-2.511-5.52-5.437-5.497
					c-2.912,0.023-5.402,2.595-5.383,5.561c0.02,3.098,2.354,5.407,5.447,5.389C81.769,99.018,84.07,96.683,84.055,93.584z
					 M101.346,94.014c0.189-3.051-2.089-5.728-5.035-5.918c-2.762-0.178-5.367,2.109-5.621,4.935
					c-0.284,3.16,1.797,5.742,4.826,5.992C98.621,99.279,101.155,97.102,101.346,94.014z M118.659,93.791
					c0.084-3.034-2.327-5.646-5.26-5.701c-2.935-0.054-5.432,2.492-5.437,5.547c-0.005,2.963,2.171,5.273,5.089,5.401
					C116.159,99.175,118.572,96.918,118.659,93.791z M78.42,133.377c2.845,0.12,5.533-2.427,5.639-5.344
					c0.11-3.02-2.219-5.57-5.195-5.686c-3.049-0.119-5.503,2.168-5.62,5.237C73.132,130.522,75.576,133.257,78.42,133.377z
					 M96.138,105.081c-2.928-0.076-5.457,2.461-5.475,5.489c-0.017,2.987,2.544,5.645,5.402,5.608
					c2.721-0.036,5.187-2.53,5.285-5.348C101.456,107.807,99.053,105.156,96.138,105.081z M84.066,110.66
					c0.027-2.948-2.459-5.532-5.369-5.579c-2.894-0.047-5.442,2.505-5.468,5.477c-0.025,2.918,2.523,5.586,5.368,5.62
					C81.422,116.212,84.039,113.572,84.066,110.66z M118.667,110.605c0.001-3.018-2.54-5.597-5.442-5.523
					c-2.775,0.071-5.181,2.513-5.263,5.344c-0.086,2.971,2.404,5.691,5.264,5.752C116.07,116.238,118.666,113.579,118.667,110.605z
					 M96.006,133.355c2.883,0.001,5.384-2.639,5.342-5.637c-0.042-2.914-2.31-5.28-5.15-5.372c-3.008-0.097-5.487,2.31-5.53,5.37
					C90.624,130.723,93.115,133.354,96.006,133.355z M107.977,127.36c-0.216,3.017,2.057,5.743,4.986,5.981
					c2.71,0.22,5.391-2.094,5.669-4.893c0.306-3.074-1.831-5.804-4.769-6.09C110.876,122.067,108.192,124.348,107.977,127.36z"/>
			</g>
		</g>
	</g>
	<g>
		<g style="opacity:0.2;">
			<path style="fill:#263238;" d="M64.514,96.986c0-11.4-0.022-22.8,0.007-34.2c0.022-8.355,4.12-12.395,12.512-12.401
				c12.778-0.01,25.556-0.016,38.334,0.003c7.885,0.012,12.099,4.16,12.11,12.029c0.031,23.051,0.031,46.101,0,69.152
				c-0.01,7.855-4.235,12.022-12.116,12.037c-12.903,0.024-25.807,0.025-38.71,0c-7.871-0.015-12.089-4.177-12.124-12.044
				C64.476,120.037,64.514,108.512,64.514,96.986z M96.175,60.844c-4.001,0-8.002-0.06-12.002,0.011
				c-12.777,0.227-10.827-2.378-10.994,11.95c-0.029,2.468,1.137,3.709,3.627,3.708c12.752-0.006,25.504-0.006,38.256,0.001
				c2.462,0.001,3.691-1.118,3.632-3.657c-0.064-2.749-0.093-5.504,0.01-8.25c0.101-2.71-1.034-3.838-3.776-3.794
				C108.678,60.913,102.426,60.845,96.175,60.844z M84.055,94.584c-0.014-2.995-2.511-5.52-5.437-5.497
				c-2.912,0.023-5.402,2.595-5.383,5.561c0.02,3.098,2.354,5.407,5.447,5.389C81.769,100.018,84.07,97.683,84.055,94.584z
				 M101.346,95.014c0.189-3.051-2.089-5.728-5.035-5.918c-2.762-0.178-5.367,2.109-5.621,4.935
				c-0.284,3.16,1.797,5.742,4.826,5.992C98.621,100.279,101.155,98.102,101.346,95.014z M118.659,94.791
				c0.084-3.034-2.327-5.646-5.26-5.701c-2.935-0.054-5.432,2.492-5.437,5.547c-0.005,2.963,2.171,5.273,5.089,5.401
				C116.159,100.175,118.572,97.918,118.659,94.791z M78.42,134.377c2.845,0.12,5.533-2.427,5.639-5.344
				c0.11-3.02-2.219-5.57-5.195-5.686c-3.049-0.119-5.503,2.168-5.62,5.237C73.132,131.522,75.576,134.257,78.42,134.377z
				 M96.138,106.081c-2.928-0.076-5.457,2.461-5.475,5.489c-0.017,2.987,2.544,5.645,5.402,5.608
				c2.721-0.036,5.187-2.53,5.285-5.348C101.456,108.807,99.053,106.156,96.138,106.081z M84.066,111.66
				c0.027-2.948-2.459-5.532-5.369-5.579c-2.894-0.047-5.442,2.505-5.468,5.477c-0.025,2.918,2.523,5.586,5.368,5.62
				C81.422,117.212,84.039,114.572,84.066,111.66z M118.667,111.605c0.001-3.018-2.54-5.597-5.442-5.523
				c-2.775,0.071-5.181,2.513-5.263,5.344c-0.086,2.971,2.404,5.691,5.264,5.752C116.07,117.238,118.666,114.579,118.667,111.605z
				 M96.006,134.355c2.883,0.001,5.384-2.639,5.342-5.637c-0.042-2.914-2.31-5.28-5.15-5.372c-3.008-0.097-5.487,2.31-5.53,5.37
				C90.624,131.723,93.115,134.354,96.006,134.355z M107.977,128.36c-0.216,3.017,2.057,5.743,4.986,5.981
				c2.71,0.22,5.391-2.094,5.669-4.893c0.306-3.074-1.831-5.804-4.769-6.09C110.876,123.067,108.192,125.348,107.977,128.36z"/>
		</g>
		<g>
			<g>
				<path style="fill:#FEC111;" d="M64.514,95.986c0-11.4-0.022-22.8,0.007-34.2c0.022-8.355,4.12-12.395,12.512-12.401
					c12.778-0.01,25.556-0.016,38.334,0.003c7.885,0.012,12.099,4.16,12.11,12.029c0.031,23.051,0.031,46.101,0,69.152
					c-0.01,7.855-4.235,12.022-12.116,12.037c-12.903,0.024-25.807,0.025-38.71,0c-7.871-0.015-12.089-4.177-12.124-12.044
					C64.476,119.037,64.514,107.512,64.514,95.986z M96.175,59.844c-4.001,0-8.002-0.06-12.002,0.011
					c-12.777,0.227-10.827-2.378-10.994,11.95c-0.029,2.468,1.137,3.709,3.627,3.708c12.752-0.006,25.504-0.006,38.256,0.001
					c2.462,0.001,3.691-1.118,3.632-3.657c-0.064-2.749-0.093-5.504,0.01-8.25c0.101-2.71-1.034-3.838-3.776-3.794
					C108.678,59.913,102.426,59.845,96.175,59.844z M84.055,93.584c-0.014-2.995-2.511-5.52-5.437-5.497
					c-2.912,0.023-5.402,2.595-5.383,5.561c0.02,3.098,2.354,5.407,5.447,5.389C81.769,99.018,84.07,96.683,84.055,93.584z
					 M101.346,94.014c0.189-3.051-2.089-5.728-5.035-5.918c-2.762-0.178-5.367,2.109-5.621,4.935
					c-0.284,3.16,1.797,5.742,4.826,5.992C98.621,99.279,101.155,97.102,101.346,94.014z M118.659,93.791
					c0.084-3.034-2.327-5.646-5.26-5.701c-2.935-0.054-5.432,2.492-5.437,5.547c-0.005,2.963,2.171,5.273,5.089,5.401
					C116.159,99.175,118.572,96.918,118.659,93.791z M78.42,133.377c2.845,0.12,5.533-2.427,5.639-5.344
					c0.11-3.02-2.219-5.57-5.195-5.686c-3.049-0.119-5.503,2.168-5.62,5.237C73.132,130.522,75.576,133.257,78.42,133.377z
					 M96.138,105.081c-2.928-0.076-5.457,2.461-5.475,5.489c-0.017,2.987,2.544,5.645,5.402,5.608
					c2.721-0.036,5.187-2.53,5.285-5.348C101.456,107.807,99.053,105.156,96.138,105.081z M84.066,110.66
					c0.027-2.948-2.459-5.532-5.369-5.579c-2.894-0.047-5.442,2.505-5.468,5.477c-0.025,2.918,2.523,5.586,5.368,5.62
					C81.422,116.212,84.039,113.572,84.066,110.66z M118.667,110.605c0.001-3.018-2.54-5.597-5.442-5.523
					c-2.775,0.071-5.181,2.513-5.263,5.344c-0.086,2.971,2.404,5.691,5.264,5.752C116.07,116.238,118.666,113.579,118.667,110.605z
					 M96.006,133.355c2.883,0.001,5.384-2.639,5.342-5.637c-0.042-2.914-2.31-5.28-5.15-5.372c-3.008-0.097-5.487,2.31-5.53,5.37
					C90.624,130.723,93.115,133.354,96.006,133.355z M107.977,127.36c-0.216,3.017,2.057,5.743,4.986,5.981
					c2.71,0.22,5.391-2.094,5.669-4.893c0.306-3.074-1.831-5.804-4.769-6.09C110.876,122.067,108.192,124.348,107.977,127.36z"/>
			</g>
		</g>
	</g>
	<g style="opacity:0.2;">
		<path style="fill:#FFFFFF;" d="M114.464,135.841c2.71,0.22,5.391-2.094,5.669-4.893c0.181-1.822-0.5-3.519-1.693-4.662
			c0.193,0.68,0.267,1.41,0.192,2.162c-0.278,2.799-2.959,5.113-5.669,4.893c-1.259-0.102-2.395-0.666-3.266-1.514
			C110.326,133.977,112.195,135.656,114.464,135.841z"/>
		<path style="fill:#FFFFFF;" d="M118.449,109.103c0.139,0.481,0.218,0.984,0.218,1.502c-0.001,2.974-2.597,5.633-5.44,5.573
			c-1.339-0.029-2.593-0.644-3.543-1.591c0.663,2.253,2.732,4.041,5.044,4.091c2.844,0.061,5.44-2.599,5.44-5.573
			C120.169,111.553,119.495,110.121,118.449,109.103z"/>
		<path style="fill:#FFFFFF;" d="M120.16,96.291c0.045-1.626-0.631-3.127-1.716-4.182c0.153,0.536,0.23,1.101,0.214,1.683
			c-0.086,3.127-2.499,5.384-5.608,5.247c-1.326-0.059-2.485-0.584-3.369-1.4c0.597,2.204,2.472,3.794,4.871,3.899
			C117.661,101.675,120.074,99.417,120.16,96.291z"/>
		<path style="fill:#FFFFFF;" d="M118.684,62.709c0.024,0.279,0.032,0.576,0.02,0.898c-0.103,2.747-0.073,5.501-0.01,8.25
			c0.059,2.539-1.17,3.658-3.632,3.657c-12.752-0.008-25.504-0.007-38.256-0.001c-0.853,0-1.539-0.156-2.086-0.446
			c0.209,1.957,1.37,2.947,3.587,2.946c12.752-0.005,25.504-0.006,38.256,0.001c2.462,0.002,3.691-1.118,3.632-3.657
			c-0.064-2.749-0.093-5.504,0.01-8.25C120.272,64.326,119.791,63.24,118.684,62.709z"/>
		<path style="fill:#FFFFFF;" d="M97.507,135.855c2.883,0.001,5.384-2.639,5.341-5.637c-0.022-1.555-0.69-2.939-1.728-3.92
			c0.128,0.455,0.22,0.925,0.227,1.42c0.043,2.998-2.459,5.638-5.341,5.637c-1.375-0.001-2.655-0.6-3.619-1.548
			C93.049,134.093,95.143,135.854,97.507,135.855z"/>
		<path style="fill:#FFFFFF;" d="M85.557,96.084c-0.007-1.54-0.674-2.953-1.716-3.962c0.134,0.468,0.212,0.958,0.214,1.463
			c0.014,3.099-2.286,5.433-5.373,5.452c-1.472,0.009-2.761-0.521-3.722-1.401c0.631,2.314,2.654,3.916,5.223,3.9
			C83.27,101.517,85.571,99.182,85.557,96.084z"/>
		<path style="fill:#FFFFFF;" d="M66.028,133.062c-0.051-11.525-0.013-23.051-0.013-34.576c0-11.4-0.022-22.8,0.007-34.2
			c0.022-8.355,4.12-12.395,12.512-12.401c12.778-0.01,25.556-0.016,38.334,0.003c4.319,0.006,7.528,1.262,9.556,3.682
			c-1.699-4.055-5.441-6.173-11.058-6.181c-12.778-0.019-25.556-0.012-38.334-0.003c-8.392,0.006-12.49,4.047-12.512,12.401
			c-0.03,11.4-0.007,22.8-0.007,34.2c0,11.525-0.038,23.051,0.013,34.576c0.016,3.553,0.893,6.343,2.567,8.344
			C66.405,137.268,66.038,135.323,66.028,133.062z"/>
		<path style="fill:#FFFFFF;" d="M83.857,109.162c0.138,0.481,0.214,0.984,0.209,1.499c-0.027,2.912-2.643,5.551-5.469,5.517
			c-1.372-0.017-2.672-0.649-3.651-1.624c0.665,2.274,2.806,4.095,5.152,4.123c2.826,0.034,5.442-2.605,5.469-5.517
			C85.581,111.625,84.91,110.193,83.857,109.162z"/>
		<path style="fill:#FFFFFF;" d="M79.921,135.876c2.845,0.12,5.533-2.427,5.639-5.344c0.06-1.644-0.607-3.146-1.704-4.194
			c0.15,0.538,0.224,1.107,0.202,1.694c-0.106,2.916-2.794,5.464-5.639,5.344c-1.307-0.055-2.525-0.666-3.454-1.591
			C75.62,134.001,77.64,135.78,79.921,135.876z"/>
		<path style="fill:#FFFFFF;" d="M101.125,92.079c0.178,0.613,0.262,1.264,0.221,1.935c-0.191,3.087-2.725,5.265-5.829,5.009
			c-1.245-0.103-2.314-0.614-3.14-1.382c0.575,2.133,2.326,3.691,4.642,3.882c3.105,0.256,5.638-1.922,5.829-5.009
			C102.954,94.788,102.271,93.183,101.125,92.079z"/>
		<path style="fill:#FFFFFF;" d="M101.132,109.102c0.159,0.551,0.24,1.132,0.219,1.728c-0.098,2.818-2.564,5.312-5.285,5.348
			c-1.383,0.018-2.692-0.598-3.678-1.574c0.676,2.305,2.825,4.104,5.179,4.073c2.721-0.036,5.187-2.53,5.285-5.348
			C102.909,111.694,102.228,110.171,101.132,109.102z"/>
	</g>
</g>
<g id="Finish_1_">
	<radialGradient id="SVGID_2_" cx="0.0221" cy="0.2345" r="271.5971" gradientUnits="userSpaceOnUse">
		<stop  offset="0" style="stop-color:#FFFFFF;stop-opacity:0.1"/>
		<stop  offset="1" style="stop-color:#FFFFFF;stop-opacity:0"/>
	</radialGradient>
	<path style="fill:url(#SVGID_2_);" d="M160,171.99H32c-6.6,0-12-5.4-12-12v-128c0-6.6,5.4-12,12-12h128c6.6,0,12,5.4,12,12v128
		C172,166.59,166.6,171.99,160,171.99z"/>
</g>
</svg>
